<svg xmlns="http://www.w3.org/2000/svg" viewBox="0 0 64 64">
  <rect width="64" height="64" rx="14" fill="#0f7a45"/>
  <path d="M8 20h48M8 32h48M8 44h48" stroke="#ffffff" stroke-opacity=".18" stroke-width="2"/>
  <circle cx="32" cy="31" r="18" fill="#f8faf4"/>
  <path d="M32 15l8 6-3 9H27l-3-9 8-6z" fill="#102015"/>
  <path d="M24 21l-8 5 3 10 8-6M40 21l8 5-3 10-8-6M19 36l3 10h9l-4-10M45 36l-3 10h-9l4-10M31 46h2l5 6a18 18 0 0 1-12 0l5-6z" fill="#102015"/>
  <path d="M18 14h28a6 6 0 0 1 6 6v8" fill="none" stroke="#facc15" stroke-width="4" stroke-linecap="round"/>
  <path d="M12 49h40" stroke="#facc15" stroke-width="5" stroke-linecap="round"/>
</svg>
